# xmcd CD database file
#
# Track frame offsets:
#	150
#	12981
#	36869
#	51421
#	66647
#	87827
#	109415
#	138873
#	154962
#	169613
#	187495
#	208882
#	226370
#	243473
#	252476
#	269795
#	279954
#	297598
#
# Disc length: 4062 seconds
#
# Revision: 3
# Processed by: cddbd v1.5.2PL0 Copyright (c) Steve Scherf et al.
# Submitted via: Feurio! 1.68 - http://www.feurio.com
#
DISCID=260fdc12
DTITLE=Dr. John - Dr. John Plays Mac Rebennack: The Legendary Sessions, Volume 
DTITLE=Two
DYEAR=1982
DGENRE=blues
TTITLE0=Saddled The Cow
TTITLE1=Boxcar Boogie
TTITLE2=The Brightest Smile in Town
TTITLE3=Waiting for A Train
TTITLE4=Monkey Puzzle
TTITLE5=Touro Infirmary
TTITLE6=Just a Closer Walk with Thee - Didn't He Ramble
TTITLE7=Your Average Kind of Guy
TTITLE8=Pretty Libby
TTITLE9=Marie La Veau
TTITLE10=Come Rain or Come Shine
TTITLE11=Suite Home New Orleans
TTITLE12=Key to the Highway
TTITLE13=Mississippi Mud
TTITLE14=Lowdown Worried and Blue
TTITLE15=Sippiana Midnight
TTITLE16=Rockin' Pneumonia and the Boogie Woogie Flu
TTITLE17=Yesterdays
EXTD=expanded reissue of: The Brightest Smile in Town
EXTT0=
EXTT1=
EXTT2=
EXTT3=
EXTT4=
EXTT5=
EXTT6=
EXTT7=
EXTT8=
EXTT9=
EXTT10=
EXTT11=
EXTT12=
EXTT13=
EXTT14=
EXTT15=
EXTT16=
EXTT17=
PLAYORDER=
